<?xml version="1.0" standalone="no"?>
<!DOCTYPE svg PUBLIC "-//W3C//DTD SVG 20010904//EN"
 "http://www.w3.org/TR/2001/REC-SVG-20010904/DTD/svg10.dtd">
<svg version="1.0" xmlns="http://www.w3.org/2000/svg"
 width="1024.000000pt" height="1024.000000pt" viewBox="0 0 1024.000000 1024.000000"
 preserveAspectRatio="xMidYMid meet">

<!-- Main hat body in purple with black stroke -->
<g transform="translate(0.000000,1024.000000) scale(0.100000,-0.100000)"
fill="#4D2783" stroke="#000000" stroke-width="150">
<path d="M4855 8224 c-503 -32 -895 -91 -1202 -178 -466 -134 -713 -304 -713
-492 0 -28 13 -163 30 -300 128 -1075 175 -1831 168 -2669 l-3 -350 -155 -27
c-495 -86 -876 -239 -1045 -419 -26 -27 -60 -79 -77 -115 -28 -60 -30 -72 -26
-147 5 -107 44 -184 143 -282 375 -372 1380 -650 2620 -725 219 -13 871 -13
1090 0 1052 63 1945 282 2420 591 109 71 234 198 271 274 26 53 29 70 29 155
0 83 -3 101 -27 145 -123 235 -524 423 -1116 522 l-163 28 1 485 c1 865 44
1508 175 2587 30 242 30 285 6 339 -119 261 -766 486 -1606 559 -173 15 -695
27 -820 19z"/>
</g>

<!-- Gold band overlay -->
<g transform="translate(0.000000,1024.000000) scale(0.100000,-0.100000)"
fill="#FFBD32" stroke="none">
<path d="M3458 4434 c444 -134 878 -201 1453 -224 645 -26 1248 44 1824
210 94 27 178 52 188 56 17 6 18 -13 15 -384 l-3 -391 -34 -35 c-127 -131
-617 -255 -1231 -312 -225 -21 -849 -24 -1065 -6 -549 48 -1022 154 -1204 272
-97 63 -91 30 -91 473 0 367 1 389 18 382 9 -3 68 -22 130 -41z"/>
</g>
</svg>